# xmcd CD database file
#
# Track frame offsets:
#	150
#	14563
#	35105
#	49423
#	64575
#	86224
#	101118
#	118536
#	128185
#	149186
#	165690
#	182210
#	199474
#	208942
#
# Disc length: 3064 seconds
#
# Revision: 0
# Processed by: cddbd v1.5.1PL2 Copyright (c) Steve Scherf et al.
# Submitted via: CDex 1.51
#
DISCID=e70bf60e
DTITLE=Frisco Fritz and Maggie - The Rose
DYEAR=1900
DGENRE=Country
TTITLE0=I never promised you a rose garden
TTITLE1=Pass the point of rescue
TTITLE2=Sweeter than the flowers
TTITLE3=If I needed you
TTITLE4=Sing me an Old Fashioned Song
TTITLE5=16th Avenue
TTITLE6=Amanda
TTITLE7=Bye Bye Love
TTITLE8=Strawberry Wine
TTITLE9=You're my Best Friend
TTITLE10=LA International Airport
TTITLE11=Sing me back home
TTITLE12=My Rifle, my Pony an me
TTITLE13=The Rose
EXTD=
EXTT0=
EXTT1=
EXTT2=
EXTT3=
EXTT4=
EXTT5=
EXTT6=
EXTT7=
EXTT8=
EXTT9=
EXTT10=
EXTT11=
EXTT12=
EXTT13=
PLAYORDER=
